<?xml version="1.0" encoding="utf-8"?>
<svg width="472px" height="668px" viewBox="0 0 472 668" version="1.1" xmlns:xlink="http://www.w3.org/1999/xlink" xmlns="http://www.w3.org/2000/svg">
  <defs>
    <path d="M0 0L471.67 0L471.67 667.587L0 667.587L0 0Z" id="path_1" />
    <clipPath id="mask_1">
      <use xlink:href="#path_1" />
    </clipPath>
  </defs>
  <g id="undraw_ideas_flow_re_bmea">
    <path d="M0 0L471.67 0L471.67 667.587L0 667.587L0 0Z" id="Background" fill="none" fill-rule="evenodd" stroke="none" />
    <g clip-path="url(#mask_1)">
      <path d="M6.75354e-05 666.147C-0.00107759 666.527 0.149119 666.893 0.417669 667.163C0.686182 667.433 1.05103 667.586 1.43192 667.587L470.23 667.587C471.025 667.587 471.67 666.942 471.67 666.147C471.67 665.351 471.025 664.706 470.23 664.706L1.44049 664.706C1.05957 664.705 0.693829 664.855 0.42369 665.124C0.153551 665.392 0.00117572 665.757 6.75354e-05 666.138L6.75354e-05 666.147Z" id="Shape" fill="#CCCCCC" stroke="none" />
      <path d="M187.341 468.87C192.449 467.836 197.679 467.552 202.868 468.027C203.868 468.019 204.676 467.211 204.684 466.211C204.664 465.217 203.863 464.416 202.868 464.396C197.353 463.918 191.797 464.245 186.376 465.368C185.751 465.541 185.264 466.034 185.101 466.662C184.938 467.29 185.122 467.957 185.584 468.413C186.046 468.868 186.717 469.042 187.342 468.87L187.341 468.87Z" id="Shape" fill="#CCCCCC" fill-opacity="0.5" stroke="none" />
      <path d="M62.696 437.286C52.7114 424.005 46.9405 409.154 46.7514 392.222C46.0816 390.323 47.0761 388.239 48.9744 387.565L83.0072 375.523C84.9071 374.853 86.9905 375.848 87.6646 377.746L103.609 422.81C104.279 424.709 103.285 426.793 101.386 427.467L67.3535 439.509C65.4537 440.179 63.3702 439.184 62.696 437.286L62.696 437.286Z" id="Shape" fill="#F2F2F2" stroke="none" />
      <path d="M70.3795 436.483C68.4797 437.152 66.3962 436.158 65.7221 434.26C55.7375 420.979 49.9665 406.128 49.7774 389.196C49.5692 388.596 49.5232 387.952 49.6441 387.328L48.9743 387.565C47.0761 388.239 46.0817 390.323 46.7513 392.222C46.9405 409.154 52.7114 424.005 62.6961 437.286C63.3701 439.184 65.4537 440.179 67.3535 439.509L101.386 427.467C102.615 427.027 103.515 425.963 103.743 424.678L70.3795 436.483Z" id="Shape" fill="#000000" fill-opacity="0.2" stroke="none" />
      <path d="M86.3237 402.754L63.54 410.886C62.7853 411.155 61.9559 410.761 61.6866 410.007C61.4173 409.252 61.81 408.422 62.5641 408.152L85.3478 400.02C86.1019 399.753 86.9295 400.147 87.1984 400.9C87.4673 401.653 87.0761 402.482 86.3236 402.754L86.3237 402.754Z" id="Shape" fill="#FFFFFF" stroke="none" />
      <path d="M65.8764 401.6L60.864 403.389C60.3759 403.566 59.8303 403.469 59.4333 403.135C59.0363 402.8 58.8484 402.279 58.9404 401.768C59.0325 401.257 59.3906 400.834 59.8794 400.658L59.8881 400.655L64.9005 398.866C65.6547 398.6 66.4823 398.993 66.7512 399.747C67.0201 400.5 66.6289 401.329 65.8764 401.6L65.8764 401.6Z" id="Shape" fill="#FFFFFF" stroke="none" />
      <path d="M90.614 414.773L67.8304 422.906C67.0762 423.172 66.2486 422.778 65.9797 422.025C65.7108 421.272 66.102 420.443 66.8545 420.172L89.6382 412.039C90.3923 411.767 91.2239 412.158 91.4957 412.912C91.7675 413.667 91.3767 414.498 90.6227 414.77L90.614 414.773Z" id="Shape" fill="#FFFFFF" stroke="none" />
      <path d="M88.4689 408.763L65.6852 416.896C64.9306 417.166 64.0999 416.774 63.8296 416.019C63.5593 415.265 63.9516 414.434 64.706 414.163L64.7092 414.162L87.4929 406.029C88.247 405.763 89.0747 406.157 89.3435 406.91C89.6124 407.663 89.2212 408.492 88.4688 408.763L88.4689 408.763Z" id="Shape" fill="#FFFFFF" stroke="none" />
      <path d="M59.0324 381.979C59.0324 378.636 61.7421 375.927 65.0846 375.927C68.4271 375.927 71.1368 378.636 71.1368 381.979C71.1368 385.321 68.4271 388.031 65.0846 388.031C61.7421 388.031 59.0324 385.321 59.0324 381.979Z" id="Circle" fill="#CCCCCC" fill-rule="evenodd" stroke="none" />
      <path d="M286.594 120.573C286.691 129.434 289.511 147.881 287.49 156.56L287.163 155.833C285.483 157.165 283.698 158.36 281.825 159.404C280.474 156.119 278.455 153.151 275.894 150.689C276.231 154.762 275.749 158.861 274.478 162.745C266.912 165.468 253.634 156.886 245.403 156.705C232.161 156.402 219.258 153.11 206.609 149.624C202.118 148.389 197.179 146.779 195.146 143.051C193.112 139.323 196.752 135.299 196.514 131.092C194.817 101.127 209.09 96.1043 222.671 88.0974C225.66 86.3354 227.125 82.5416 230.503 81.0648C235.187 79.0192 240.767 79.9996 245.863 81.0285C243.289 80.1806 241.344 78.0517 240.731 75.4121C240.297 72.8182 241.354 70.2002 243.466 68.6337C246.275 66.467 250.463 66.2007 254.046 67.1206C257.507 68.203 260.781 69.8116 263.753 71.8897C265.772 72.9967 267.575 74.4561 269.079 76.1989C270.53 77.8878 270.781 80.2997 269.709 82.251C268.4 83.9058 266.408 84.8729 264.298 84.8777C262.693 84.9244 261.09 84.7575 259.529 84.3814C266.683 86.1461 273.13 90.0472 278.012 95.5658C284.076 102.623 286.485 111.713 286.594 120.573L286.594 120.573Z" id="Shape" fill="#2F2E41" stroke="none" />
      <path d="M75.0108 205.963C77.5701 211.395 83.9891 213.802 89.489 211.392C90.0229 211.148 90.5357 210.86 91.0221 210.531L122.19 233.43L139.373 221.704L93.2864 194.951C90.1626 191.02 84.7822 189.688 80.1853 191.707C74.8584 194.108 72.4867 200.373 74.8879 205.7L74.8879 205.7C74.9276 205.788 74.9686 205.876 75.0108 205.963L75.0108 205.963Z" id="Shape" fill="#FFB6B6" stroke="none" />
      <path d="M396.247 185.182C390.289 185.924 386.005 191.276 386.584 197.253C386.65 197.836 386.764 198.413 386.925 198.977L355.467 221.475L361.266 241.454L401.028 205.976C405.736 204.23 408.676 199.531 408.187 194.534C407.562 188.724 402.345 184.521 396.536 185.146C396.44 185.157 396.343 185.169 396.247 185.182L396.247 185.182Z" id="Shape" fill="#FFB6B6" stroke="none" />
      <path d="M168.126 646.253L157.994 646.167L153.511 606.182L168.462 606.308L168.126 646.253L168.126 646.253Z" id="Polygon" fill="#FFB6B6" fill-rule="evenodd" stroke="none" />
      <path d="M135.676 662.362C135.657 664.863 137.666 666.907 140.167 666.931L160.308 667.099L163.834 659.952L165.13 667.136L172.729 667.205L170.81 641.583L168.166 641.407L157.381 640.663L153.902 640.43L153.841 647.68L137.661 658.654C136.431 659.489 135.689 660.875 135.676 662.362L135.676 662.362Z" id="Shape" fill="#2F2E41" stroke="none" />
      <path d="M301.666 601.374L293.395 607.223L266.392 577.393L278.6 568.759L301.666 601.374L301.666 601.374Z" id="Polygon" fill="#FFB6B6" fill-rule="evenodd" stroke="none" />
      <path d="M284.744 633.406C286.19 635.447 289.014 635.932 291.058 634.491L307.502 622.859L306.188 614.998L311.436 620.071L317.644 615.687L301.116 596.014L298.867 597.416L289.68 603.115L286.721 604.958L290.907 610.877L284.188 629.237C283.677 630.634 283.885 632.192 284.744 633.406L284.744 633.406Z" id="Shape" fill="#2F2E41" stroke="none" />
      <path d="M175.724 322.065L205.151 253.73L272.93 253.73L253.38 325.046L175.724 322.065L175.724 322.065Z" id="Polygon" fill="#FFB6B6" fill-rule="evenodd" stroke="none" />
      <path d="M113.505 646.56C112.352 646.613 111.289 645.94 110.844 644.875C110.399 643.811 110.667 642.582 111.514 641.799L111.702 641.05C111.677 640.99 111.652 640.931 111.627 640.871C110.468 638.133 107.78 636.359 104.807 636.37C101.834 636.381 99.159 638.175 98.0204 640.921C95.7949 646.281 92.9615 651.651 92.2638 657.318C91.9566 659.823 92.0862 662.362 92.6469 664.823C87.4199 653.421 84.7056 641.028 84.6882 628.485C84.6866 625.349 84.8611 622.204 85.2107 619.076C85.5008 616.504 85.9026 613.954 86.416 611.426C89.2176 597.71 95.2327 584.855 103.967 573.915C108.195 571.608 111.614 568.061 113.763 563.751C114.542 562.202 115.093 560.549 115.397 558.842C114.921 558.904 113.599 551.641 113.959 551.196C113.294 550.187 112.105 549.686 111.379 548.702C107.769 543.807 102.796 544.662 100.199 551.313C94.6527 554.112 94.599 558.755 98.0023 563.22C100.167 566.06 100.465 569.904 102.365 572.945C102.169 573.196 101.966 573.438 101.771 573.688C98.1977 578.282 95.0837 583.216 92.4732 588.417C93.1081 582.59 92.3504 576.695 90.2625 571.218C88.1464 566.113 84.1802 561.814 80.6874 557.401C78.7983 554.976 75.6351 553.928 72.6721 554.745C69.7092 555.562 67.5299 558.083 67.1499 561.133C67.1427 561.198 67.1357 561.263 67.129 561.328C67.6478 561.62 68.1556 561.931 68.6525 562.26C69.93 563.113 70.5526 564.664 70.2203 566.164C69.8879 567.664 68.6688 568.806 67.1503 569.04L67.0742 569.052C67.259 570.922 67.5857 572.775 68.0515 574.595C63.5707 591.923 73.2444 598.235 87.0571 598.518C87.362 598.675 87.6591 598.831 87.964 598.98C85.3412 606.412 83.6961 614.155 83.0699 622.011C82.7154 626.647 82.7363 631.303 83.1324 635.935L83.109 635.771C82.1082 630.62 79.3605 625.973 75.33 622.613C69.3437 617.696 60.8861 615.885 54.4279 611.932C53.0266 611.032 51.2303 611.028 49.8246 611.921C48.4188 612.814 47.6592 614.442 47.878 616.093L47.9044 616.265C48.8671 616.657 49.8045 617.109 50.711 617.618C51.2298 617.91 51.7377 618.221 52.2345 618.55C53.5121 619.403 54.1347 620.954 53.8023 622.454C53.47 623.954 52.2508 625.096 50.7323 625.33L50.6562 625.342C50.6015 625.35 50.5546 625.358 50.5 625.365C52.1449 629.293 54.4537 632.908 57.3251 636.053C60.1268 651.18 72.1601 652.615 85.0322 648.21L85.04 648.21C86.4523 654.347 88.4985 660.321 91.1458 666.035L112.958 666.035C113.036 665.792 113.107 665.542 113.177 665.3C111.158 665.427 109.131 665.306 107.141 664.94C108.76 662.955 110.378 660.953 111.997 658.967C112.033 658.93 112.067 658.891 112.098 658.85C112.919 657.834 113.748 656.825 114.569 655.809L114.569 655.808C114.613 652.692 114.255 649.584 113.505 646.56L113.505 646.56Z" id="Shape" fill="#F2F2F2" stroke="none" />
      <path d="M349.534 646.56C350.687 646.613 351.749 645.94 352.195 644.875C352.64 643.811 352.372 642.582 351.525 641.799L351.337 641.05C351.361 640.99 351.386 640.931 351.411 640.871C352.57 638.133 355.259 636.359 358.232 636.37C361.204 636.381 363.88 638.175 365.018 640.921C367.244 646.281 370.077 651.65 370.775 657.318C371.082 659.823 370.953 662.362 370.392 664.823C375.619 653.421 378.333 641.028 378.351 628.485C378.352 625.349 378.178 622.203 377.828 619.075C377.538 616.503 377.136 613.954 376.623 611.426C373.821 597.71 367.806 584.854 359.071 573.915C354.844 571.608 351.425 568.061 349.275 563.751C348.497 562.202 347.946 560.549 347.641 558.842C348.118 558.904 349.44 551.641 349.08 551.196C349.744 550.187 350.934 549.686 351.66 548.702C355.27 543.807 360.243 544.662 362.84 551.313C368.386 554.112 368.44 558.755 365.037 563.22C362.871 566.06 362.574 569.904 360.674 572.945C360.87 573.196 361.073 573.438 361.268 573.688C364.841 578.282 367.955 583.216 370.566 588.417C369.931 582.59 370.689 576.695 372.776 571.218C374.892 566.113 378.859 561.814 382.351 557.401C384.241 554.976 387.404 553.928 390.367 554.745C393.33 555.562 395.509 558.083 395.889 561.133C395.896 561.198 395.903 561.263 395.91 561.328C395.391 561.621 394.883 561.931 394.386 562.26C393.109 563.113 392.486 564.664 392.819 566.164C393.151 567.664 394.37 568.806 395.889 569.04L395.965 569.052C395.78 570.922 395.453 572.775 394.987 574.595C399.468 591.923 389.795 598.235 375.982 598.518C375.677 598.675 375.38 598.831 375.075 598.98C377.698 606.412 379.343 614.154 379.969 622.011C380.323 626.647 380.303 631.303 379.906 635.935L379.93 635.771C380.931 630.62 383.678 625.973 387.709 622.613C393.695 617.696 402.153 615.885 408.611 611.932C410.012 611.032 411.808 611.028 413.214 611.921C414.62 612.814 415.38 614.442 415.161 616.093L415.134 616.265C414.172 616.657 413.234 617.109 412.328 617.618C411.809 617.91 411.301 618.221 410.804 618.549C409.527 619.403 408.904 620.953 409.236 622.454C409.569 623.954 410.788 625.096 412.307 625.33L412.383 625.342C412.437 625.35 412.484 625.357 412.539 625.365C410.894 629.293 408.585 632.908 405.714 636.052C402.912 651.179 390.879 652.615 378.007 648.21L377.999 648.21C376.586 654.347 374.54 660.32 371.893 666.035L350.081 666.035C350.002 665.792 349.932 665.542 349.862 665.3C351.881 665.427 353.908 665.306 355.897 664.94C354.279 662.954 352.661 660.953 351.042 658.967C351.006 658.93 350.972 658.891 350.941 658.85C350.12 657.834 349.291 656.825 348.47 655.809L348.47 655.808C348.426 652.692 348.783 649.584 349.533 646.56L349.534 646.56Z" id="Shape" fill="#F2F2F2" stroke="none" />
      <path d="M175.724 316.934L146.508 377.881L148.593 620.763L173.617 620.763C173.617 620.763 178.483 614.202 178.483 609.604C178.483 605.006 170.207 604.339 175.724 598.695C181.241 593.051 183.081 591.212 183.081 585.695L183.081 497.425L202.812 411.857L200.726 505.877L271.627 590.497L288.144 573.98C288.144 573.98 292.974 571.851 288.144 567.279C283.314 562.706 280.302 570.782 279.968 558.008C279.635 545.234 282.394 547.993 279.635 545.234C276.877 542.475 238.262 496.379 238.262 496.379C238.262 496.379 273.198 347.527 255.727 319.02L175.724 316.934Z" id="Shape" fill="#2F2E41" stroke="none" />
      <path d="M257.566 323.618C257.566 323.618 182.161 296.95 187.679 282.237C193.196 267.524 202.464 270.355 191.393 265.721C180.322 261.087 172.987 260.168 179.873 253.731C186.759 247.294 196.874 240.857 196.874 234.42C196.874 227.983 205.15 177.406 205.15 177.406L218.399 177.406L231.818 154.417L250.774 154.417L260.324 175.567L280.49 175.567L281.475 207.752C281.475 207.752 282.778 269.928 276.609 272.404C270.44 274.881 264.922 274.881 270.44 280.398C275.957 285.916 279.1 288.768 276.609 293.779C274.118 298.79 257.566 323.618 257.566 323.618L257.566 323.618Z" id="Shape" fill="#E6E6E6" stroke="none" />
      <path d="M268.601 184.763L280.49 175.567C280.49 175.567 300.786 175.567 303.544 186.602C306.303 197.637 322.907 224.622 322.907 224.622C322.907 224.622 339.407 215.109 345.844 215.109C352.281 215.109 356.879 219.707 356.879 214.189C356.879 208.672 353.201 207.752 358.718 207.752C364.236 207.752 378.949 202.235 378.949 202.235L394.643 217.929C394.643 217.929 392.742 232.581 386.305 231.661C379.868 230.741 376.19 226.144 376.19 231.661C376.19 237.178 379.868 245.455 371.592 246.374C363.316 247.294 308.142 261.087 308.142 261.087L270.44 205.913L268.601 184.763Z" id="Shape" fill="#E6E6E6" stroke="none" />
      <path d="M220.783 184.763L208.894 175.567C208.894 175.567 188.598 175.567 185.839 186.602C183.081 197.637 165.551 224.622 165.551 224.622C165.551 224.622 149.976 215.109 143.539 215.109C137.102 215.109 132.504 219.707 132.504 214.189C132.504 208.672 136.183 207.752 130.665 207.752C125.148 207.752 110.435 202.235 110.435 202.235L94.7406 217.929C94.7406 217.929 96.6413 232.581 103.078 231.661C109.515 230.741 113.193 226.144 113.193 231.661C113.193 237.178 109.515 245.454 117.791 246.374C126.067 247.294 181.242 261.087 181.242 261.087L218.944 205.913L220.783 184.763Z" id="Shape" fill="#E6E6E6" stroke="none" />
      <path d="M209.746 120.077C209.746 103.87 222.884 90.7312 239.092 90.7312C255.299 90.7312 268.438 103.87 268.438 120.077C268.438 136.284 255.299 149.423 239.092 149.423C222.884 149.423 209.746 136.284 209.746 120.077Z" id="Circle" fill="#FFB6B6" fill-rule="evenodd" stroke="none" />
      <path d="M271.113 115.647C267.663 119.823 262.531 119.605 257.967 118.939C256.527 118.734 255.087 118.504 253.646 118.237C253.392 117.426 253.101 116.615 252.775 115.829C251.424 112.543 249.404 109.575 246.844 107.113C247.113 110.332 246.864 113.573 246.105 116.712C243.43 116.095 240.767 115.405 238.116 114.642C233.245 113.85 229.85 109.38 230.394 104.475C226.581 107.38 222.429 109.897 218.072 109.946C213.03 109.815 208.661 106.414 207.299 101.558C206.112 97.9262 206.294 93.7381 206.778 89.8163C207.359 85.1561 208.666 80.036 211.814 78.1598C214.343 76.6347 217.261 77.7241 219.863 78.9587C225.597 81.7103 231.032 85.0445 236.083 88.9085L236.143 90.1794C237.451 83.9215 241.772 79.0919 246.48 78.6077C249.652 78.293 252.75 79.7576 255.74 81.2343C259.648 82.9583 263.282 85.2461 266.525 88.0249C270.19 91.3581 272.735 95.7421 273.812 100.577C274.938 105.818 274.09 112.04 271.113 115.647L271.113 115.647Z" id="Shape" fill="#2F2E41" stroke="none" />
      <path d="M242.063 74.9207C242.364 74.946 241.625 74.7764 241.865 74.8773C241.747 74.8234 241.634 74.7601 241.527 74.6879C241.508 74.6762 241.27 74.4834 241.426 74.6176C241.067 74.3381 240.796 73.9607 240.647 73.531C240.314 72.4866 240.159 71.3936 240.188 70.2977C240.248 68.8575 240.002 67.4209 239.467 66.0822C239.146 65.3469 238.493 64.8092 237.71 64.6345C236.926 64.4598 236.107 64.6692 235.503 65.1982C234.513 66.1694 234.434 67.8103 234.364 69.1153C234.289 70.4702 234.432 71.8284 234.789 73.1376C235.404 75.2902 236.631 77.2177 238.321 78.6851C240.274 80.395 242.725 81.4299 245.312 81.6364C246.038 81.6202 246.687 81.1765 246.965 80.5053C247.243 79.8341 247.098 79.062 246.596 78.5369L243.347 75.4525C242.638 74.7435 241.488 74.7435 240.779 75.4525C240.07 76.1616 240.07 77.3112 240.779 78.0202L244.028 81.1046L245.312 78.0051C244.776 77.9568 244.247 77.8487 243.735 77.6828C243.179 77.5285 242.649 77.2959 242.159 76.9922C241.679 76.7292 241.229 76.4147 240.817 76.0542C240.553 75.8226 240.302 75.5777 240.063 75.3206C239.976 75.2272 239.892 75.1321 239.808 75.0354C239.814 75.0424 239.466 74.6057 239.616 74.8055C239.24 74.2917 238.913 73.7441 238.64 73.1697C238.543 72.9663 238.463 72.7553 238.401 72.5389C238.286 72.1828 238.192 71.8204 238.12 71.4534C237.981 70.6823 237.94 69.8969 237.995 69.1154C238.011 68.784 238.044 68.4536 238.094 68.1256C238.14 67.9527 238.174 67.7768 238.196 67.5992C238.202 67.1584 238.136 67.8347 237.906 67.9373L236.989 68.1852C236.687 68.1606 236.412 67.9998 236.243 67.7482C236.205 67.5966 236.215 67.6235 236.275 67.8288C236.344 68.0698 236.397 68.3149 236.435 68.5626C236.505 69.1386 236.546 69.7177 236.557 70.2978C236.568 71.5265 236.711 72.7507 236.983 73.9492C237.504 76.4197 239.553 78.276 242.063 78.5521C243.063 78.5441 243.871 77.7359 243.879 76.7364C243.859 75.742 243.058 74.9406 242.063 74.9207L242.063 74.9207Z" id="Shape" fill="#2F2E41" stroke="none" />
      <path d="M391.934 192.778C381.949 179.497 376.179 164.646 375.989 147.715C375.32 145.815 376.314 143.731 378.212 143.057L412.245 131.015C414.145 130.346 416.229 131.34 416.903 133.238L432.847 178.302C433.517 180.202 432.523 182.285 430.624 182.959L396.592 195.001C394.692 195.671 392.608 194.676 391.934 192.778L391.934 192.778Z" id="Shape" fill="#6C63FF" stroke="none" />
      <path d="M399.618 191.975C397.718 192.645 395.634 191.65 394.96 189.752C384.976 176.471 379.205 161.62 379.016 144.689C378.807 144.088 378.761 143.444 378.882 142.82L378.213 143.057C376.314 143.731 375.32 145.815 375.99 147.715C376.179 164.646 381.95 179.497 391.934 192.778C392.608 194.676 394.692 195.671 396.592 195.001L430.625 182.959C431.854 182.52 432.753 181.455 432.981 180.17L399.618 191.975Z" id="Shape" fill="#000000" fill-opacity="0.2" stroke="none" />
      <path d="M415.562 158.246L392.778 166.378C392.023 166.647 391.194 166.253 390.925 165.499C390.655 164.744 391.048 163.915 391.802 163.644L414.586 155.512C415.341 155.243 416.17 155.637 416.439 156.391C416.708 157.146 416.316 157.976 415.562 158.246L415.562 158.246Z" id="Shape" fill="#FFFFFF" stroke="none" />
      <path d="M395.115 157.092L390.102 158.882C389.614 159.057 389.07 158.958 388.674 158.622C388.278 158.287 388.092 157.766 388.184 157.256C388.277 156.746 388.635 156.324 389.123 156.149L389.126 156.148L394.139 154.358C394.893 154.09 395.723 154.484 395.992 155.238C396.261 155.992 395.868 156.822 395.114 157.092L395.115 157.092Z" id="Shape" fill="#FFFFFF" stroke="none" />
      <path d="M419.852 170.265L397.069 178.398C396.58 178.573 396.036 178.474 395.64 178.139C395.245 177.804 395.058 177.283 395.151 176.772C395.243 176.262 395.601 175.84 396.089 175.665L396.093 175.664L418.876 167.531C419.631 167.263 420.46 167.657 420.73 168.411C420.999 169.165 420.606 169.995 419.852 170.265L419.852 170.265Z" id="Shape" fill="#FFFFFF" stroke="none" />
      <path d="M417.707 164.256L394.923 172.388C394.435 172.563 393.891 172.464 393.495 172.129C393.1 171.794 392.913 171.273 393.006 170.763C393.098 170.252 393.456 169.83 393.944 169.655L393.947 169.654L416.731 161.522C417.219 161.347 417.764 161.445 418.159 161.781C418.555 162.116 418.742 162.637 418.649 163.147C418.556 163.658 418.199 164.08 417.71 164.255L417.707 164.256Z" id="Shape" fill="#FFFFFF" stroke="none" />
      <path d="M388.271 137.471C388.271 134.129 390.98 131.419 394.323 131.419C397.665 131.419 400.375 134.129 400.375 137.471C400.375 140.814 397.665 143.523 394.323 143.523C390.98 143.523 388.271 140.814 388.271 137.471Z" id="Circle" fill="#3F3D56" fill-rule="evenodd" stroke="none" />
      <path d="M95.4688 38.515C101.564 23.0582 111.202 10.3709 125.534 1.3525C126.802 -0.212198 129.098 -0.454596 130.666 0.810639L158.732 23.5163C160.296 24.7851 160.539 27.081 159.274 28.6485L129.209 65.811C127.94 67.3757 125.644 67.6181 124.076 66.3529L96.0106 43.6473C94.4459 42.3785 94.2035 40.0826 95.4687 38.515L95.4688 38.515Z" id="Shape" fill="#6C63FF" stroke="none" />
      <path d="M100.173 44.6432C98.608 43.3745 98.3655 41.0785 99.6308 39.511C105.726 24.0541 115.364 11.3668 129.696 2.34842C130.098 1.85702 130.623 1.48068 131.218 1.25745L130.666 0.810612C129.098 -0.454604 126.802 -0.212243 125.534 1.3524C111.202 10.3708 101.564 23.058 95.4687 38.515C94.2034 40.0825 94.4458 42.3785 96.0105 43.6472L124.077 66.3528C125.094 67.1703 126.472 67.3799 127.686 66.902L100.173 44.6432Z" id="Shape" fill="#000000" fill-opacity="0.2" stroke="none" />
      <path d="M137.259 40.5875L118.41 25.4242C117.787 24.921 117.69 24.0092 118.191 23.3857C118.693 22.7622 119.604 22.6622 120.229 23.1622L139.079 38.3255C139.483 38.6506 139.683 39.1665 139.604 39.679C139.524 40.1914 139.177 40.6225 138.694 40.8099C138.21 40.9973 137.663 40.9126 137.259 40.5875L137.259 40.5875Z" id="Shape" fill="#FFFFFF" stroke="none" />
      <path d="M127.546 22.5577L123.399 19.2218C122.777 18.7186 122.679 17.8069 123.181 17.1835C123.682 16.56 124.594 16.46 125.219 16.9598L129.365 20.2958C129.987 20.7992 130.084 21.7102 129.583 22.3332C129.081 22.9562 128.171 23.0566 127.546 22.5578L127.546 22.5577Z" id="Shape" fill="#FFFFFF" stroke="none" />
      <path d="M129.26 50.5317L110.41 35.3684C109.788 34.8652 109.691 33.9535 110.192 33.3301C110.694 32.7067 111.605 32.6067 112.23 33.1065L131.079 48.2698C131.701 48.7729 131.799 49.6846 131.298 50.3081C130.796 50.9315 129.885 51.0315 129.26 50.5317L129.26 50.5317Z" id="Shape" fill="#FFFFFF" stroke="none" />
      <path d="M133.26 45.5596L114.41 30.3963C114.004 30.0725 113.803 29.5569 113.881 29.0439C113.959 28.531 114.304 28.0986 114.788 27.91C115.271 27.7212 115.818 27.8049 116.223 28.1294L116.229 28.1343L135.079 43.2977C135.484 43.6216 135.686 44.137 135.607 44.6497C135.529 45.1623 135.184 45.5944 134.701 45.7831C134.218 45.9718 133.671 45.8885 133.266 45.5646L133.26 45.5596L133.26 45.5596Z" id="Shape" fill="#FFFFFF" stroke="none" />
      <path d="M137.802 11.6187C137.802 8.27616 140.512 5.56651 143.854 5.56651C147.197 5.56651 149.906 8.27616 149.906 11.6187C149.906 14.9612 147.197 17.6709 143.854 17.6709C140.512 17.6709 137.802 14.9612 137.802 11.6187Z" id="Circle" fill="#3F3D56" fill-rule="evenodd" stroke="none" />
      <path d="M26.0465 219.453C11.2778 199.809 2.74185 177.842 2.4621 152.798C1.47139 149.987 2.94232 146.906 5.75024 145.909L56.0896 128.097C58.8997 127.106 61.9815 128.577 62.9786 131.385L86.5629 198.04C87.5537 200.85 86.0827 203.932 83.2748 204.929L32.9355 222.741C30.1254 223.731 27.0436 222.26 26.0465 219.453L26.0465 219.453Z" id="Shape" fill="#6C63FF" stroke="none" />
      <path d="M37.4115 218.265C34.6014 219.255 31.5197 217.784 30.5226 214.977C15.7539 195.333 7.21789 173.366 6.93807 148.322C6.63007 147.434 6.56203 146.481 6.74078 145.558L5.75017 145.909C2.94232 146.906 1.47139 149.987 2.46204 152.798C2.74174 177.842 11.2777 199.809 26.0465 219.453C27.0436 222.26 30.1253 223.731 32.9354 222.741L83.2749 204.929C85.0928 204.279 86.4229 202.705 86.7603 200.804L37.4115 218.265Z" id="Shape" fill="#000000" fill-opacity="0.2" stroke="none" />
      <path d="M60.9951 168.375L27.2949 180.404C26.5719 180.664 25.7648 180.518 25.1788 180.021C24.5927 179.524 24.317 178.752 24.4559 177.996C24.5947 177.24 25.1269 176.616 25.8514 176.36L59.5516 164.331C60.2741 164.073 61.0794 164.219 61.6641 164.716C62.2488 165.213 62.524 165.984 62.386 166.739C62.2481 167.493 61.7179 168.117 60.9953 168.375L60.9951 168.375Z" id="Shape" fill="#FFFFFF" stroke="none" />
      <path d="M30.7508 166.669L23.3367 169.315C22.2211 169.71 20.9964 169.127 20.5985 168.013C20.2007 166.898 20.7797 165.672 21.8932 165.271L21.8932 165.271L29.3072 162.625C30.4229 162.23 31.6476 162.812 32.0454 163.927C32.4433 165.041 31.8642 166.268 30.7508 166.669L30.7508 166.669Z" id="Shape" fill="#FFFFFF" stroke="none" />
      <path d="M67.3412 186.153L33.6409 198.183C32.9185 198.441 32.1132 198.294 31.5285 197.797C30.9438 197.3 30.6686 196.529 30.8065 195.775C30.9445 195.02 31.4747 194.396 32.1973 194.139L32.1974 194.139L65.8977 182.109C66.6201 181.851 67.4255 181.998 68.0101 182.495C68.5948 182.992 68.8701 183.763 68.7321 184.517C68.5941 185.272 68.064 185.896 67.3414 186.153L67.3412 186.153Z" id="Shape" fill="#FFFFFF" stroke="none" />
      <path d="M64.1682 177.264L30.4679 189.293C29.7454 189.551 28.9401 189.404 28.3554 188.908C27.7707 188.411 27.4955 187.64 27.6335 186.885C27.7715 186.131 28.3016 185.507 29.0242 185.249L29.0244 185.249L62.7247 173.22C63.4471 172.962 64.2524 173.109 64.8371 173.605C65.4218 174.102 65.697 174.873 65.5591 175.628C65.4211 176.383 64.8909 177.006 64.1683 177.264L64.1682 177.264Z" id="Shape" fill="#FFFFFF" stroke="none" />
      <path d="M20.6276 137.646C20.6276 132.702 24.6355 128.694 29.5796 128.694C34.5236 128.694 38.5316 132.702 38.5316 137.646C38.5316 142.59 34.5236 146.598 29.5796 146.598C24.6355 146.598 20.6276 142.59 20.6276 137.646Z" id="Circle" fill="#3F3D56" fill-rule="evenodd" stroke="none" />
      <path d="M358.238 543.226C341.622 543.141 326.306 538.752 312.71 528.659C310.792 528.043 309.735 525.991 310.346 524.072L321.347 489.688C321.963 487.77 324.016 486.713 325.935 487.324L371.463 501.891C373.381 502.507 374.438 504.559 373.826 506.479L362.825 540.862C362.209 542.78 360.157 543.837 358.238 543.226L358.238 543.226Z" id="Shape" fill="#F2F2F2" stroke="none" />
      <path d="M362.246 536.622C361.631 538.54 359.578 539.597 357.659 538.986C341.044 538.901 325.727 534.512 312.131 524.419C311.527 524.222 310.986 523.869 310.563 523.395L310.346 524.072C309.735 525.991 310.792 528.043 312.71 528.659C326.306 538.752 341.622 543.141 358.238 543.226C360.157 543.837 362.209 542.78 362.825 540.862L373.826 506.479C374.22 505.234 373.916 503.874 373.031 502.915L362.246 536.622Z" id="Shape" fill="#000000" fill-opacity="0.2" stroke="none" />
      <path d="M345.036 503.521L337.728 526.583C337.574 527.079 337.167 527.455 336.66 527.569C336.153 527.683 335.624 527.518 335.273 527.136C334.921 526.753 334.801 526.212 334.957 525.717L334.96 525.706L342.268 502.644C342.513 501.883 343.327 501.463 344.089 501.705C344.851 501.946 345.274 502.758 345.036 503.521L345.036 503.521Z" id="Shape" fill="#FFFFFF" stroke="none" />
      <path d="M331.747 519.104L330.14 524.178C329.985 524.673 329.578 525.048 329.072 525.161C328.566 525.275 328.038 525.11 327.687 524.729C327.335 524.347 327.214 523.807 327.369 523.312L327.372 523.301L328.98 518.227C329.135 517.733 329.542 517.358 330.048 517.244C330.554 517.131 331.082 517.295 331.433 517.677C331.784 518.058 331.906 518.598 331.751 519.093L331.747 519.104Z" id="Shape" fill="#FFFFFF" stroke="none" />
      <path d="M357.202 507.376L349.894 530.438C349.739 530.933 349.332 531.308 348.826 531.421C348.32 531.535 347.792 531.37 347.441 530.989C347.089 530.607 346.968 530.067 347.123 529.572L347.126 529.561L354.434 506.5C354.588 506.003 354.995 505.627 355.502 505.513C356.009 505.399 356.538 505.564 356.889 505.946C357.241 506.329 357.361 506.87 357.205 507.365L357.202 507.376Z" id="Shape" fill="#FFFFFF" stroke="none" />
      <path d="M351.119 505.449L343.811 528.51C343.657 529.006 343.25 529.383 342.743 529.497C342.237 529.611 341.707 529.446 341.356 529.063C341.004 528.681 340.884 528.14 341.04 527.645L341.043 527.633L348.351 504.572C348.506 504.077 348.913 503.702 349.419 503.588C349.925 503.475 350.453 503.64 350.804 504.021C351.156 504.403 351.277 504.943 351.122 505.438L351.119 505.449Z" id="Shape" fill="#FFFFFF" stroke="none" />
      <path d="M309.593 507.864C309.593 504.522 312.302 501.812 315.645 501.812C318.987 501.812 321.697 504.522 321.697 507.864C321.697 511.207 318.987 513.917 315.645 513.917C312.302 513.917 309.593 511.207 309.593 507.864Z" id="Circle" fill="#CCCCCC" fill-rule="evenodd" stroke="none" />
      <path d="M441.732 274.242C438.377 273.392 436.137 270.811 436.729 268.478C437.32 266.144 440.519 264.942 443.873 265.792C447.228 266.642 449.468 269.223 448.876 271.556C448.285 273.89 445.086 275.092 441.732 274.242Z" id="Ellipse" fill="#FFFFFF" fill-rule="evenodd" stroke="none" />
      <path d="M400.766 273.978C397.412 273.128 395.172 270.547 395.763 268.214C396.354 265.88 399.553 264.678 402.908 265.528C406.262 266.378 408.502 268.959 407.911 271.292C407.32 273.626 404.121 274.829 400.766 273.978Z" id="Ellipse" fill="#3F3D56" fill-rule="evenodd" stroke="none" />
      <path d="M449.419 308.229C446.065 307.379 443.825 304.798 444.416 302.465C445.007 300.131 448.206 298.929 451.561 299.779C454.915 300.629 457.155 303.21 456.564 305.543C455.972 307.877 452.774 309.079 449.419 308.229Z" id="Ellipse" fill="#FF6584" fill-rule="evenodd" stroke="none" />
      <path d="M462.936 321.989C461.424 321.82 460.395 319.921 460.638 317.747C460.881 315.574 462.303 313.949 463.815 314.118C465.327 314.287 466.356 316.186 466.113 318.359C465.87 320.533 464.448 322.158 462.936 321.989Z" id="Ellipse" fill="#E6E6E6" fill-rule="evenodd" stroke="none" />
      <path d="M466.304 347.659C464.792 347.49 463.763 345.591 464.006 343.418C464.249 341.244 465.672 339.619 467.184 339.788C468.696 339.957 469.725 341.856 469.482 344.03C469.239 346.203 467.816 347.828 466.304 347.659Z" id="Ellipse" fill="#3F3D56" fill-rule="evenodd" stroke="none" />
      <path d="M424.423 298.739C422.911 298.57 421.882 296.671 422.125 294.497C422.368 292.323 423.79 290.698 425.302 290.867C426.814 291.036 427.843 292.935 427.601 295.109C427.358 297.282 425.935 298.907 424.423 298.739Z" id="Ellipse" fill="#E6E6E6" fill-rule="evenodd" stroke="none" />
      <path d="M445.039 290.994C443.527 290.825 442.498 288.926 442.741 286.752C442.983 284.579 444.406 282.954 445.918 283.122C447.43 283.291 448.459 285.19 448.216 287.364C447.973 289.538 446.551 291.163 445.039 290.994Z" id="Ellipse" fill="#FF6584" fill-rule="evenodd" stroke="none" />
      <path d="M419.641 270.07C418.129 269.901 417.1 268.002 417.343 265.828C417.586 263.654 419.008 262.029 420.521 262.198C422.033 262.367 423.061 264.266 422.819 266.44C422.576 268.613 421.153 270.238 419.641 270.07Z" id="Ellipse" fill="#3F3D56" fill-rule="evenodd" stroke="none" />
      <path d="M59.2344 259.717C55.8799 258.867 53.6399 256.286 54.2313 253.953C54.8226 251.619 58.0215 250.416 61.376 251.266C64.7305 252.117 66.9705 254.698 66.3791 257.031C65.7878 259.365 62.589 260.567 59.2344 259.717Z" id="Ellipse" fill="#FFFFFF" fill-rule="evenodd" stroke="none" />
      <path d="M18.2689 259.453C14.9143 258.603 12.6744 256.022 13.2657 253.689C13.8571 251.355 17.0559 250.152 20.4105 251.002C23.765 251.853 26.005 254.434 25.4136 256.767C24.8222 259.101 21.6234 260.303 18.2689 259.453Z" id="Ellipse" fill="#3F3D56" fill-rule="evenodd" stroke="none" />
      <path d="M66.9218 293.704C63.5673 292.854 61.3273 290.273 61.9187 287.94C62.5101 285.606 65.7089 284.404 69.0634 285.254C72.4179 286.104 74.6579 288.685 74.0665 291.018C73.4752 293.352 70.2764 294.554 66.9218 293.704Z" id="Ellipse" fill="#FF6584" fill-rule="evenodd" stroke="none" />
      <path d="M80.4385 307.464C78.9265 307.295 77.8976 305.396 78.1405 303.222C78.3833 301.048 79.806 299.423 81.318 299.592C82.8301 299.761 83.8589 301.66 83.6161 303.834C83.3732 306.007 81.9506 307.633 80.4385 307.464Z" id="Ellipse" fill="#E6E6E6" fill-rule="evenodd" stroke="none" />
      <path d="M83.8071 333.134C82.2951 332.965 81.2662 331.066 81.509 328.893C81.7519 326.719 83.1746 325.094 84.6866 325.263C86.1987 325.432 87.2275 327.331 86.9847 329.504C86.7418 331.678 85.3191 333.303 83.8071 333.134Z" id="Ellipse" fill="#3F3D56" fill-rule="evenodd" stroke="none" />
      <path d="M41.9256 284.213C40.4136 284.044 39.3847 282.145 39.6276 279.972C39.8704 277.798 41.2931 276.173 42.8051 276.342C44.3172 276.511 45.346 278.41 45.1032 280.584C44.8603 282.757 43.4377 284.382 41.9256 284.213Z" id="Ellipse" fill="#E6E6E6" fill-rule="evenodd" stroke="none" />
      <path d="M62.5414 276.469C61.0294 276.3 60.0005 274.401 60.2434 272.227C60.4863 270.053 61.9089 268.428 63.4209 268.597C64.933 268.766 65.9619 270.665 65.719 272.839C65.4761 275.012 64.0535 276.637 62.5414 276.469Z" id="Ellipse" fill="#FF6584" fill-rule="evenodd" stroke="none" />
      <path d="M37.1437 255.544C35.6317 255.375 34.6028 253.476 34.8457 251.303C35.0886 249.129 36.5112 247.504 38.0232 247.673C39.5353 247.842 40.5642 249.741 40.3213 251.915C40.0784 254.088 38.6558 255.713 37.1437 255.544Z" id="Ellipse" fill="#3F3D56" fill-rule="evenodd" stroke="none" />
      <path d="M327.781 373.133C317.797 359.852 312.026 345.001 311.837 328.069C311.167 326.17 312.161 324.086 314.06 323.412L348.092 311.37C349.992 310.7 352.076 311.695 352.75 313.593L368.694 358.657C369.364 360.556 368.37 362.64 366.471 363.314L332.439 375.356C330.539 376.026 328.455 375.031 327.781 373.133L327.781 373.133Z" id="Shape" fill="#F2F2F2" stroke="none" />
      <path d="M335.465 372.33C333.565 372.999 331.481 372.005 330.807 370.107C320.823 356.826 315.052 341.975 314.863 325.043C314.654 324.443 314.608 323.799 314.729 323.175L314.06 323.412C312.161 324.086 311.167 326.169 311.837 328.069C312.026 345.001 317.797 359.852 327.781 373.133C328.455 375.031 330.539 376.026 332.439 375.356L366.472 363.314C367.701 362.874 368.6 361.81 368.828 360.525L335.465 372.33Z" id="Shape" fill="#000000" fill-opacity="0.2" stroke="none" />
      <path d="M351.409 338.601L328.625 346.733C327.87 347.002 327.041 346.608 326.772 345.854C326.502 345.099 326.895 344.269 327.649 343.999L350.433 335.867C351.188 335.598 352.017 335.992 352.286 336.746C352.555 337.501 352.163 338.33 351.409 338.601L351.409 338.601Z" id="Shape" fill="#FFFFFF" stroke="none" />
      <path d="M330.961 337.447L325.949 339.236C325.461 339.411 324.917 339.312 324.521 338.977C324.125 338.642 323.939 338.121 324.031 337.611C324.124 337.1 324.482 336.678 324.97 336.503L324.973 336.502L329.985 334.713C330.74 334.445 331.57 334.838 331.839 335.593C332.108 336.347 331.715 337.177 330.961 337.447L330.961 337.447Z" id="Shape" fill="#FFFFFF" stroke="none" />
      <path d="M355.699 350.62L332.915 358.753C332.427 358.928 331.883 358.829 331.487 358.494C331.092 358.158 330.905 357.637 330.998 357.127C331.09 356.617 331.448 356.195 331.936 356.02L331.939 356.019L354.723 347.886C355.478 347.618 356.307 348.011 356.577 348.766C356.846 349.52 356.453 350.35 355.699 350.62L355.699 350.62Z" id="Shape" fill="#FFFFFF" stroke="none" />
      <path d="M353.554 344.61L330.77 352.743C330.282 352.918 329.738 352.819 329.342 352.484C328.947 352.148 328.76 351.628 328.853 351.117C328.945 350.607 329.303 350.185 329.791 350.01L329.794 350.009L352.578 341.876C353.066 341.701 353.611 341.8 354.006 342.136C354.402 342.471 354.589 342.992 354.496 343.502C354.403 344.012 354.046 344.434 353.557 344.609L353.554 344.61Z" id="Shape" fill="#FFFFFF" stroke="none" />
      <path d="M324.118 317.826C324.118 314.483 326.827 311.774 330.17 311.774C333.512 311.774 336.222 314.483 336.222 317.826C336.222 321.168 333.512 323.878 330.17 323.878C326.827 323.878 324.118 321.168 324.118 317.826Z" id="Circle" fill="#CCCCCC" fill-rule="evenodd" stroke="none" />
    </g>
  </g>
</svg>