<?xml version="1.0" encoding="utf-8"?>
<svg width="529px" height="749px" viewBox="0 0 529 749" version="1.1" xmlns:xlink="http://www.w3.org/1999/xlink" xmlns="http://www.w3.org/2000/svg">
  <defs>
    <path d="M0 0L528.67 0L528.67 748.263L0 748.263L0 0Z" id="path_1" />
    <clipPath id="mask_1">
      <use xlink:href="#path_1" />
    </clipPath>
  </defs>
  <g id="undraw_ideas_flow_re_bmea">
    <path d="M0 0L528.67 0L528.67 748.263L0 748.263L0 0Z" id="Background" fill="none" fill-rule="evenodd" stroke="none" />
    <g clip-path="url(#mask_1)">
      <path d="M6.83209e-05 746.648C-0.00121519 747.075 0.167132 747.485 0.468136 747.788C0.769098 748.091 1.17804 748.262 1.60495 748.263L527.056 748.263C527.947 748.263 528.67 747.54 528.67 746.648C528.67 745.757 527.947 745.034 527.056 745.034L1.61456 745.034C1.18761 745.033 0.777669 745.201 0.474884 745.502C0.1721 745.803 0.00131043 746.212 6.83209e-05 746.639L6.83209e-05 746.648Z" id="Shape" fill="#CCCCCC" stroke="none" />
      <path d="M209.981 525.531C215.706 524.373 221.568 524.055 227.384 524.587C228.505 524.578 229.411 523.672 229.42 522.552C229.397 521.437 228.499 520.539 227.384 520.517C221.202 519.981 214.975 520.348 208.899 521.607C208.198 521.8 207.653 522.353 207.47 523.057C207.287 523.76 207.493 524.509 208.012 525.019C208.53 525.529 209.281 525.725 209.982 525.531L209.981 525.531Z" id="Shape" fill="#CCCCCC" fill-opacity="0.5" stroke="none" />
      <path d="M70.2727 490.131C59.0814 475.245 52.6131 458.599 52.4011 439.621C51.6505 437.492 52.7651 435.157 54.8928 434.401L93.0384 420.904C95.1678 420.153 97.5031 421.268 98.2587 423.396L116.13 473.905C116.881 476.034 115.766 478.37 113.639 479.125L75.493 492.622C73.3636 493.373 71.0283 492.258 70.2727 490.131L70.2727 490.131Z" id="Shape" fill="#F2F2F2" stroke="none" />
      <path d="M78.8847 489.23C76.7553 489.981 74.42 488.866 73.6645 486.739C62.4732 471.853 56.0049 455.207 55.7929 436.23C55.5595 435.557 55.5079 434.835 55.6434 434.136L54.8928 434.401C52.7651 435.157 51.6505 437.492 52.4011 439.621C52.6131 458.599 59.0814 475.245 70.2727 490.131C71.0282 492.258 73.3636 493.373 75.493 492.622L113.639 479.125C115.016 478.633 116.024 477.439 116.28 475.999L78.8847 489.23Z" id="Shape" fill="#000000" fill-opacity="0.2" stroke="none" />
      <path d="M96.7557 451.425L71.2186 460.541C70.3727 460.841 69.4431 460.4 69.1413 459.555C68.8394 458.709 69.2796 457.779 70.1248 457.476L95.6618 448.361C96.507 448.062 97.4347 448.503 97.7361 449.348C98.0375 450.192 97.599 451.121 96.7556 451.425L96.7557 451.425Z" id="Shape" fill="#FFFFFF" stroke="none" />
      <path d="M73.8374 450.132L68.2193 452.138C67.6721 452.336 67.0606 452.227 66.6157 451.852C66.1707 451.477 65.96 450.893 66.0632 450.32C66.1664 449.747 66.5678 449.273 67.1157 449.077L67.1254 449.073L72.7436 447.068C73.5889 446.769 74.5165 447.211 74.8179 448.055C75.1193 448.899 74.6808 449.828 73.8374 450.132L73.8374 450.132Z" id="Shape" fill="#FFFFFF" stroke="none" />
      <path d="M101.564 464.897L76.0275 474.013C75.1822 474.311 74.2546 473.87 73.9532 473.026C73.6518 472.181 74.0903 471.252 74.9337 470.948L100.471 461.833C101.316 461.528 102.248 461.967 102.553 462.812C102.857 463.657 102.419 464.589 101.574 464.894L101.564 464.897Z" id="Shape" fill="#FFFFFF" stroke="none" />
      <path d="M99.1601 458.161L73.623 467.277C72.7773 467.58 71.8462 467.139 71.5432 466.294C71.2402 465.448 71.6799 464.517 72.5255 464.214L72.5291 464.212L98.0662 455.097C98.9114 454.798 99.8391 455.24 100.14 456.084C100.442 456.928 100.003 457.857 99.16 458.161L99.1601 458.161Z" id="Shape" fill="#FFFFFF" stroke="none" />
      <path d="M66.1663 428.14C66.1663 424.393 69.2034 421.356 72.9499 421.356C76.6963 421.356 79.7334 424.393 79.7334 428.14C79.7334 431.886 76.6963 434.923 72.9499 434.923C69.2034 434.923 66.1663 431.886 66.1663 428.14Z" id="Circle" fill="#CCCCCC" fill-rule="evenodd" stroke="none" />
      <path d="M321.228 135.144C321.337 145.076 324.498 165.752 322.232 175.479L321.866 174.665C319.982 176.158 317.982 177.497 315.883 178.668C314.369 174.985 312.105 171.659 309.235 168.899C309.613 173.464 309.073 178.059 307.647 182.412C299.168 185.465 284.285 175.846 275.059 175.642C260.217 175.303 245.754 171.613 231.577 167.705C226.543 166.322 221.008 164.517 218.729 160.339C216.449 156.16 220.529 151.649 220.262 146.934C218.361 113.348 234.358 107.718 249.58 98.7438C252.93 96.7688 254.573 92.5165 258.358 90.8613C263.609 88.5685 269.863 89.6674 275.575 90.8206C272.69 89.8702 270.51 87.4841 269.822 84.5255C269.337 81.6181 270.521 78.6837 272.888 76.9279C276.036 74.4994 280.73 74.2009 284.746 75.232C288.626 76.4452 292.296 78.2481 295.627 80.5774C297.889 81.8182 299.911 83.4539 301.597 85.4073C303.223 87.3003 303.504 90.0037 302.302 92.1909C300.835 94.0456 298.602 95.1296 296.238 95.1349C294.439 95.1873 292.641 95.0002 290.892 94.5787C298.911 96.5566 306.137 100.929 311.609 107.115C318.406 115.024 321.106 125.213 321.228 135.144L321.228 135.144Z" id="Shape" fill="#2F2E41" stroke="none" />
      <path d="M84.0757 230.853C86.9443 236.942 94.1389 239.639 100.303 236.938C100.902 236.664 101.477 236.342 102.022 235.973L136.956 261.64L156.216 248.496L104.56 218.51C101.059 214.104 95.0279 212.611 89.8755 214.874C83.9049 217.566 81.2465 224.587 83.9379 230.558L83.9379 230.558C83.9824 230.657 84.0284 230.755 84.0757 230.853L84.0757 230.853Z" id="Shape" fill="#FFB6B6" stroke="none" />
      <path d="M444.133 207.56C437.454 208.393 432.652 214.391 433.302 221.09C433.375 221.744 433.503 222.39 433.684 223.023L398.424 248.239L404.924 270.633L449.491 230.868C454.768 228.911 458.063 223.644 457.515 218.043C456.814 211.531 450.968 206.82 444.456 207.521C444.348 207.533 444.24 207.546 444.133 207.56L444.133 207.56Z" id="Shape" fill="#FFB6B6" stroke="none" />
      <path d="M188.443 724.351L177.088 724.255L172.062 679.437L188.82 679.578L188.443 724.351L188.443 724.351Z" id="Polygon" fill="#FFB6B6" fill-rule="evenodd" stroke="none" />
      <path d="M152.072 742.407C152.051 745.21 154.303 747.5 157.105 747.528L179.681 747.716L183.633 739.705L185.085 747.757L193.603 747.835L191.452 719.116L188.489 718.919L176.4 718.086L172.5 717.825L172.432 725.95L154.297 738.251C152.918 739.187 152.086 740.74 152.072 742.407L152.072 742.407Z" id="Shape" fill="#2F2E41" stroke="none" />
      <path d="M338.121 674.048L328.851 680.604L298.585 647.169L312.268 637.492L338.121 674.048L338.121 674.048Z" id="Polygon" fill="#FFB6B6" fill-rule="evenodd" stroke="none" />
      <path d="M319.154 709.952C320.775 712.238 323.941 712.782 326.231 711.167L344.663 698.129L343.189 689.319L349.072 695.005L356.03 690.091L337.505 668.041L334.985 669.612L324.688 675.999L321.37 678.066L326.062 684.7L318.531 705.279C317.959 706.844 318.192 708.591 319.154 709.952L319.154 709.952Z" id="Shape" fill="#2F2E41" stroke="none" />
      <path d="M196.959 360.986L229.942 284.393L305.913 284.393L284.001 364.327L196.959 360.986L196.959 360.986Z" id="Polygon" fill="#FFB6B6" fill-rule="evenodd" stroke="none" />
      <path d="M127.221 724.695C125.93 724.754 124.738 724 124.24 722.807C123.741 721.614 124.041 720.236 124.99 719.358L125.201 718.52C125.173 718.452 125.145 718.385 125.117 718.318C123.818 715.25 120.805 713.261 117.473 713.274C114.141 713.286 111.142 715.297 109.866 718.375C107.371 724.383 104.196 730.401 103.414 736.753C103.069 739.561 103.215 742.407 103.843 745.165C97.9843 732.385 94.942 718.495 94.9225 704.435C94.9207 700.921 95.1163 697.395 95.5081 693.889C95.8334 691.006 96.2837 688.148 96.8591 685.315C99.9993 669.942 106.741 655.533 116.532 643.271C121.27 640.685 125.102 636.71 127.511 631.879C128.384 630.143 129.001 628.289 129.343 626.376C128.808 626.446 127.327 618.305 127.731 617.806C126.986 616.676 125.652 616.114 124.839 615.011C120.793 609.525 115.218 610.483 112.308 617.938C106.091 621.075 106.031 626.279 109.846 631.283C112.272 634.467 112.606 638.776 114.735 642.184C114.516 642.465 114.288 642.736 114.069 643.017C110.065 648.166 106.574 653.696 103.648 659.526C104.36 652.994 103.511 646.387 101.17 640.248C98.7986 634.526 94.3531 629.707 90.4382 624.761C88.3208 622.044 84.7753 620.869 81.4544 621.785C78.1334 622.7 75.6907 625.526 75.2648 628.944C75.2567 629.017 75.2489 629.09 75.2413 629.163C75.8228 629.491 76.392 629.839 76.9489 630.207C78.3809 631.164 79.0787 632.902 78.7062 634.583C78.3337 636.264 76.9672 637.545 75.2652 637.807L75.18 637.82C75.3871 639.916 75.7533 641.993 76.2753 644.033C71.2531 663.456 82.0958 670.53 97.5777 670.847C97.9194 671.023 98.2525 671.198 98.5942 671.365C95.6545 679.695 93.8105 688.373 93.1087 697.18C92.7113 702.375 92.7347 707.595 93.1788 712.786L93.1525 712.602C92.0307 706.829 88.951 701.62 84.4334 697.854C77.7236 692.343 68.244 690.313 61.0054 685.883C59.4347 684.874 57.4214 684.869 55.8457 685.87C54.2701 686.871 53.4187 688.695 53.664 690.546L53.6935 690.739C54.7726 691.179 55.8232 691.685 56.8393 692.255C57.4208 692.583 57.99 692.931 58.5469 693.3C59.9789 694.256 60.6767 695.994 60.3042 697.675C59.9317 699.357 58.5652 700.637 56.8631 700.9L56.7779 700.913C56.7166 700.921 56.6639 700.93 56.6027 700.939C58.4465 705.341 61.0342 709.393 64.2526 712.918C67.3929 729.873 80.8805 731.481 95.3081 726.544L95.3168 726.544C96.8998 733.423 99.1933 740.119 102.161 746.523L126.609 746.523C126.696 746.252 126.775 745.971 126.854 745.699C124.591 745.842 122.319 745.706 120.089 745.296C121.903 743.071 123.717 740.827 125.531 738.602C125.571 738.56 125.61 738.516 125.645 738.47C126.565 737.331 127.494 736.201 128.414 735.062L128.414 735.06C128.464 731.568 128.063 728.084 127.222 724.695L127.221 724.695Z" id="Shape" fill="#F2F2F2" stroke="none" />
      <path d="M391.774 724.695C393.066 724.754 394.257 724 394.756 722.807C395.255 721.614 394.955 720.236 394.006 719.358L393.795 718.519C393.822 718.452 393.85 718.385 393.878 718.318C395.177 715.25 398.191 713.261 401.523 713.274C404.855 713.286 407.854 715.297 409.13 718.375C411.624 724.383 414.8 730.401 415.582 736.753C415.927 739.561 415.781 742.407 415.153 745.165C421.011 732.385 424.054 718.494 424.073 704.435C424.075 700.92 423.879 697.395 423.488 693.889C423.162 691.006 422.712 688.148 422.137 685.315C418.996 669.942 412.254 655.532 402.464 643.271C397.726 640.685 393.894 636.71 391.484 631.879C390.611 630.143 389.995 628.289 389.653 626.376C390.187 626.446 391.668 618.305 391.265 617.806C392.01 616.676 393.343 616.114 394.157 615.011C398.203 609.525 403.778 610.483 406.688 617.938C412.905 621.075 412.965 626.279 409.15 631.283C406.723 634.467 406.39 638.776 404.261 642.184C404.48 642.465 404.708 642.736 404.927 643.017C408.931 648.166 412.422 653.696 415.348 659.526C414.636 652.994 415.485 646.387 417.825 640.248C420.197 634.526 424.643 629.707 428.557 624.761C430.675 622.044 434.22 620.869 437.541 621.785C440.862 622.7 443.305 625.526 443.731 628.944C443.739 629.017 443.747 629.09 443.755 629.163C443.173 629.491 442.604 629.839 442.047 630.207C440.615 631.164 439.917 632.902 440.29 634.583C440.662 636.265 442.029 637.545 443.731 637.807L443.816 637.82C443.609 639.916 443.243 641.993 442.72 644.033C447.743 663.456 436.9 670.53 421.418 670.847C421.076 671.023 420.743 671.198 420.402 671.365C423.341 679.695 425.185 688.373 425.887 697.18C426.284 702.375 426.261 707.594 425.817 712.786L425.843 712.602C426.965 706.829 430.045 701.62 434.562 697.854C441.272 692.343 450.752 690.313 457.99 685.882C459.561 684.874 461.574 684.869 463.15 685.87C464.726 686.871 465.577 688.695 465.332 690.546L465.302 690.739C464.223 691.179 463.173 691.685 462.156 692.255C461.575 692.583 461.006 692.931 460.449 693.299C459.017 694.256 458.319 695.994 458.691 697.675C459.064 699.357 460.43 700.637 462.133 700.9L462.218 700.913C462.279 700.921 462.332 700.93 462.393 700.939C460.549 705.341 457.961 709.393 454.743 712.918C451.603 729.873 438.115 731.481 423.688 726.544L423.679 726.544C422.096 733.423 419.802 740.118 416.835 746.523L392.387 746.523C392.299 746.251 392.22 745.971 392.141 745.699C394.404 745.842 396.676 745.706 398.906 745.296C397.093 743.071 395.279 740.827 393.465 738.602C393.424 738.56 393.386 738.516 393.351 738.47C392.431 737.331 391.502 736.201 390.582 735.061L390.581 735.06C390.532 731.568 390.933 728.085 391.773 724.695L391.774 724.695Z" id="Shape" fill="#F2F2F2" stroke="none" />
      <path d="M196.96 355.234L164.213 423.547L166.55 695.781L194.598 695.781C194.598 695.781 200.052 688.426 200.052 683.273C200.052 678.119 190.776 677.372 196.96 671.046C203.144 664.72 205.205 662.659 205.205 656.474L205.205 557.537L227.321 461.629L224.983 567.01L304.453 661.857L322.965 643.344C322.965 643.344 328.379 640.958 322.965 635.833C317.551 630.707 314.175 639.76 313.802 625.442C313.428 611.124 316.521 614.216 313.429 611.124C310.337 608.032 267.055 556.365 267.055 556.365C267.055 556.365 306.214 389.524 286.63 357.573L196.96 355.234Z" id="Shape" fill="#2F2E41" stroke="none" />
      <path d="M288.692 362.726C288.692 362.726 204.175 332.836 210.359 316.345C216.543 299.854 226.931 303.027 214.522 297.833C202.113 292.639 193.892 291.608 201.61 284.393C209.328 277.178 220.666 269.964 220.666 262.749C220.666 255.534 229.942 198.846 229.942 198.846L244.792 198.846L259.832 173.078L281.079 173.078L291.784 196.784L314.386 196.784L315.49 232.859C315.49 232.859 316.951 302.548 310.036 305.324C303.122 308.099 296.937 308.099 303.122 314.283C309.306 320.468 312.828 323.665 310.036 329.281C307.244 334.897 288.692 362.726 288.692 362.726L288.692 362.726Z" id="Shape" fill="#E6E6E6" stroke="none" />
      <path d="M301.06 207.091L314.386 196.784C314.386 196.784 337.135 196.784 340.227 209.152C343.319 221.521 361.93 251.767 361.93 251.767C361.93 251.767 380.424 241.104 387.639 241.104C394.854 241.104 400.007 246.258 400.007 240.073C400.007 233.889 395.884 232.858 402.069 232.858C408.253 232.858 424.744 226.674 424.744 226.674L442.335 244.265C442.335 244.265 440.204 260.687 432.989 259.657C425.774 258.626 421.652 253.472 421.652 259.657C421.652 265.841 425.775 275.117 416.498 276.148C407.222 277.178 345.38 292.639 345.38 292.639L303.122 230.797L301.06 207.091Z" id="Shape" fill="#E6E6E6" stroke="none" />
      <path d="M247.464 207.091L234.138 196.784C234.138 196.784 211.39 196.784 208.298 209.152C205.205 221.521 185.557 251.767 185.557 251.767C185.557 251.767 168.1 241.104 160.886 241.104C153.671 241.104 148.517 246.258 148.517 240.073C148.517 233.889 152.64 232.858 146.456 232.858C140.272 232.858 123.781 226.674 123.781 226.674L106.19 244.265C106.19 244.265 108.32 260.687 115.535 259.657C122.75 258.626 126.873 253.472 126.873 259.657C126.873 265.841 122.75 275.117 132.026 276.148C141.302 277.178 203.144 292.639 203.144 292.639L245.403 230.797L247.464 207.091Z" id="Shape" fill="#E6E6E6" stroke="none" />
      <path d="M235.093 134.588C235.093 116.422 249.819 101.696 267.985 101.696C286.151 101.696 300.877 116.422 300.877 134.588C300.877 152.754 286.151 167.48 267.985 167.48C249.819 167.48 235.093 152.754 235.093 134.588Z" id="Circle" fill="#FFB6B6" fill-rule="evenodd" stroke="none" />
      <path d="M303.876 129.623C300.009 134.303 294.257 134.059 289.142 133.313C287.527 133.082 285.913 132.824 284.299 132.526C284.014 131.617 283.688 130.708 283.322 129.826C281.808 126.144 279.544 122.817 276.674 120.058C276.976 123.665 276.697 127.298 275.846 130.816C272.848 130.124 269.863 129.351 266.892 128.496C261.432 127.609 257.626 122.598 258.236 117.1C253.963 120.356 249.309 123.178 244.425 123.232C238.774 123.086 233.877 119.273 232.35 113.83C231.021 109.76 231.224 105.066 231.767 100.67C232.418 95.447 233.883 89.7081 237.411 87.6052C240.246 85.8957 243.516 87.1168 246.433 88.5006C252.859 91.5847 258.951 95.3218 264.613 99.6528L264.681 101.077C266.146 94.0631 270.989 88.6498 276.267 88.1072C279.821 87.7544 283.295 89.396 286.646 91.0512C291.026 92.9835 295.098 95.5478 298.734 98.6624C302.841 102.398 305.694 107.312 306.901 112.732C308.163 118.606 307.213 125.58 303.876 129.623L303.876 129.623Z" id="Shape" fill="#2F2E41" stroke="none" />
      <path d="M271.316 83.9747C271.653 84.003 270.825 83.813 271.094 83.926C270.962 83.8656 270.835 83.7946 270.714 83.7138C270.694 83.7006 270.426 83.4845 270.601 83.6349C270.199 83.3217 269.896 82.8987 269.729 82.417C269.355 81.2464 269.181 80.0213 269.214 78.793C269.281 77.1787 269.006 75.5685 268.406 74.068C268.046 73.2439 267.314 72.6412 266.436 72.4454C265.558 72.2496 264.64 72.4843 263.963 73.0772C262.853 74.1658 262.765 76.005 262.687 77.4677C262.602 78.9863 262.763 80.5087 263.163 81.9761C263.851 84.3888 265.227 86.5492 267.122 88.194C269.31 90.1105 272.058 91.2705 274.957 91.5019C275.771 91.4837 276.498 90.9865 276.81 90.2341C277.121 89.4818 276.959 88.6164 276.396 88.0279L272.755 84.5707C271.96 83.776 270.672 83.776 269.877 84.5707C269.082 85.3655 269.082 86.654 269.877 87.4488L273.518 90.9059L274.957 87.4318C274.356 87.3777 273.763 87.2565 273.189 87.0706C272.567 86.8976 271.972 86.6369 271.423 86.2965C270.885 86.0017 270.381 85.6492 269.919 85.2452C269.624 84.9855 269.342 84.7111 269.074 84.4229C268.977 84.3182 268.882 84.2116 268.788 84.1033C268.795 84.1111 268.405 83.6216 268.573 83.8455C268.152 83.2697 267.785 82.6559 267.478 82.0121C267.37 81.7841 267.281 81.5476 267.211 81.305C267.082 80.9059 266.977 80.4997 266.896 80.0883C266.741 79.224 266.694 78.3437 266.757 77.4678C266.774 77.0963 266.811 76.726 266.867 76.3584C266.919 76.1646 266.957 75.9674 266.981 75.7684C266.988 75.2743 266.914 76.0323 266.656 76.1474L265.629 76.4252C265.29 76.3976 264.982 76.2173 264.792 75.9353C264.749 75.7654 264.761 75.7956 264.828 76.0257C264.905 76.2958 264.965 76.5706 265.008 76.8483C265.086 77.4938 265.132 78.1429 265.144 78.793C265.157 80.1703 265.317 81.5424 265.621 82.8858C266.206 85.6548 268.502 87.7355 271.316 88.0449C272.436 88.036 273.342 87.1301 273.351 86.0098C273.329 84.8952 272.43 83.9969 271.316 83.9747L271.316 83.9747Z" id="Shape" fill="#2F2E41" stroke="none" />
      <path d="M439.298 216.075C428.107 201.189 421.639 184.543 421.427 165.566C420.676 163.436 421.791 161.101 423.918 160.345L462.064 146.848C464.193 146.098 466.529 147.212 467.284 149.34L485.156 199.849C485.906 201.979 484.792 204.314 482.664 205.069L444.518 218.566C442.389 219.317 440.054 218.202 439.298 216.075L439.298 216.075Z" id="Shape" fill="#6C63FF" stroke="none" />
      <path d="M447.91 215.174C445.781 215.925 443.446 214.811 442.69 212.683C431.499 197.797 425.031 181.151 424.819 162.174C424.585 161.501 424.534 160.779 424.669 160.08L423.918 160.345C421.791 161.101 420.676 163.436 421.427 165.565C421.639 184.543 428.107 201.189 439.298 216.075C440.054 218.202 442.389 219.317 444.519 218.566L482.664 205.069C484.042 204.577 485.05 203.384 485.306 201.943L447.91 215.174Z" id="Shape" fill="#000000" fill-opacity="0.2" stroke="none" />
      <path d="M465.781 177.369L440.244 186.485C439.398 186.786 438.469 186.344 438.167 185.499C437.865 184.653 438.305 183.723 439.15 183.42L464.687 174.305C465.533 174.004 466.463 174.445 466.765 175.291C467.066 176.136 466.626 177.067 465.781 177.369L465.781 177.369Z" id="Shape" fill="#FFFFFF" stroke="none" />
      <path d="M442.863 176.077L437.245 178.082C436.698 178.278 436.087 178.167 435.644 177.792C435.201 177.416 434.992 176.832 435.095 176.26C435.199 175.688 435.6 175.215 436.147 175.019L436.151 175.018L441.769 173.012C442.615 172.711 443.545 173.153 443.846 173.998C444.148 174.844 443.708 175.774 442.863 176.077L442.863 176.077Z" id="Shape" fill="#FFFFFF" stroke="none" />
      <path d="M470.59 190.841L445.053 199.957C444.506 200.153 443.896 200.042 443.452 199.666C443.009 199.291 442.8 198.707 442.903 198.135C443.007 197.563 443.408 197.09 443.956 196.894L443.959 196.892L469.496 187.777C470.342 187.476 471.272 187.917 471.574 188.763C471.875 189.609 471.435 190.539 470.59 190.842L470.59 190.841Z" id="Shape" fill="#FFFFFF" stroke="none" />
      <path d="M468.186 184.105L442.649 193.221C442.102 193.417 441.491 193.306 441.048 192.93C440.605 192.555 440.395 191.971 440.499 191.399C440.603 190.827 441.004 190.354 441.551 190.158L441.555 190.157L467.092 181.041C467.639 180.845 468.249 180.956 468.693 181.332C469.136 181.707 469.345 182.291 469.242 182.863C469.138 183.435 468.737 183.908 468.19 184.104L468.186 184.105Z" id="Shape" fill="#FFFFFF" stroke="none" />
      <path d="M435.192 154.084C435.192 150.338 438.229 147.301 441.976 147.301C445.722 147.301 448.759 150.338 448.759 154.084C448.759 157.831 445.722 160.868 441.976 160.868C438.229 160.868 435.192 157.831 435.192 154.084Z" id="Circle" fill="#3F3D56" fill-rule="evenodd" stroke="none" />
      <path d="M107.006 43.1694C113.838 25.8447 124.641 11.6242 140.704 1.51595C142.126 -0.237846 144.699 -0.509536 146.456 0.908598L177.914 26.3581C179.668 27.7803 179.939 30.3536 178.521 32.1106L144.823 73.7641C143.401 75.5179 140.828 75.7896 139.071 74.3715L107.613 48.9219C105.859 47.4998 105.588 44.9264 107.006 43.1694L107.006 43.1694Z" id="Shape" fill="#6C63FF" stroke="none" />
      <path d="M112.278 50.0382C110.524 48.6161 110.253 46.0428 111.671 44.2858C118.503 26.9609 129.306 12.7404 145.369 2.63222C145.82 2.08143 146.409 1.65961 147.075 1.40941L146.456 0.908572C144.699 -0.509541 142.126 -0.237892 140.704 1.51584C124.641 11.6241 113.838 25.8445 107.006 43.1694C105.588 44.9264 105.859 47.4998 107.613 48.9219L139.071 74.3714C140.211 75.2877 141.755 75.5226 143.117 74.9869L112.278 50.0382Z" id="Shape" fill="#000000" fill-opacity="0.2" stroke="none" />
      <path d="M153.847 45.4924L132.719 28.4966C132.022 27.9327 131.912 26.9107 132.474 26.2118C133.037 25.513 134.058 25.4009 134.759 25.9613L155.886 42.9571C156.339 43.3214 156.563 43.8997 156.474 44.4741C156.385 45.0484 155.996 45.5317 155.454 45.7417C154.912 45.9518 154.3 45.8567 153.847 45.4924L153.847 45.4924Z" id="Shape" fill="#FFFFFF" stroke="none" />
      <path d="M142.959 25.2838L138.311 21.5447C137.614 20.9807 137.505 19.9588 138.067 19.2601C138.629 18.5613 139.651 18.4492 140.351 19.0094L144.999 22.7485C145.695 23.3127 145.804 24.3338 145.242 25.0321C144.681 25.7304 143.66 25.843 142.959 25.2838L142.959 25.2838Z" id="Shape" fill="#FFFFFF" stroke="none" />
      <path d="M144.881 56.6383L123.753 39.6426C123.056 39.0786 122.946 38.0567 123.508 37.358C124.071 36.6592 125.092 36.5471 125.792 37.1073L146.92 54.103C147.617 54.667 147.727 55.6889 147.165 56.3876C146.602 57.0864 145.581 57.1985 144.88 56.6383L144.881 56.6383Z" id="Shape" fill="#FFFFFF" stroke="none" />
      <path d="M149.364 51.0653L128.236 34.0696C127.782 33.7067 127.555 33.1288 127.643 32.5538C127.73 31.9789 128.118 31.4943 128.66 31.2828C129.201 31.0713 129.815 31.1651 130.269 31.5287L130.275 31.5343L151.403 48.5301C151.857 48.8932 152.083 49.4708 151.995 50.0454C151.908 50.6201 151.52 51.1043 150.979 51.3158C150.437 51.5274 149.824 51.434 149.37 51.0709L149.364 51.0654L149.364 51.0653Z" id="Shape" fill="#FFFFFF" stroke="none" />
      <path d="M154.455 13.0228C154.455 9.27632 157.492 6.23921 161.238 6.23921C164.985 6.23921 168.022 9.27632 168.022 13.0228C168.022 16.7692 164.985 19.8063 161.238 19.8063C157.492 19.8063 154.455 16.7692 154.455 13.0228Z" id="Circle" fill="#3F3D56" fill-rule="evenodd" stroke="none" />
      <path d="M29.1941 245.973C12.6407 223.955 3.07318 199.333 2.75963 171.263C1.64918 168.113 3.29787 164.659 6.44512 163.541L62.8678 143.577C66.0176 142.467 69.4718 144.115 70.5893 147.263L97.0238 221.973C98.1343 225.123 96.4856 228.577 93.3384 229.694L36.9156 249.658C33.7659 250.769 30.3118 249.12 29.1941 245.973L29.1941 245.973Z" id="Shape" fill="#6C63FF" stroke="none" />
      <path d="M41.9326 244.641C38.7829 245.752 35.3287 244.103 34.2111 240.956C17.6577 218.938 8.09014 194.316 7.77651 166.246C7.43128 165.251 7.35502 164.182 7.55537 163.148L6.44505 163.541C3.29788 164.659 1.64919 168.113 2.75955 171.263C3.07306 199.333 12.6406 223.955 29.1941 245.973C30.3117 249.12 33.7659 250.769 36.9156 249.658L93.3384 229.694C95.376 228.966 96.8669 227.201 97.245 225.07L41.9326 244.641Z" id="Shape" fill="#000000" fill-opacity="0.2" stroke="none" />
      <path d="M68.3662 188.722L30.5934 202.205C29.783 202.497 28.8784 202.334 28.2215 201.776C27.5647 201.219 27.2556 200.354 27.4113 199.506C27.5669 198.659 28.1634 197.96 28.9754 197.673L66.7483 184.19C67.558 183.9 68.4607 184.065 69.116 184.622C69.7714 185.178 70.0798 186.043 69.9252 186.888C69.7706 187.734 69.1763 188.433 68.3664 188.722L68.3662 188.722Z" id="Shape" fill="#FFFFFF" stroke="none" />
      <path d="M34.4669 186.81L26.1569 189.776C24.9064 190.219 23.5337 189.566 23.0878 188.317C22.6419 187.067 23.2909 185.693 24.5389 185.244L24.5389 185.244L32.8489 182.277C34.0994 181.835 35.4721 182.488 35.918 183.737C36.3639 184.986 35.7149 186.361 34.4669 186.81L34.4669 186.81Z" id="Shape" fill="#FFFFFF" stroke="none" />
      <path d="M75.4792 208.649L37.7064 222.132C36.8966 222.422 35.994 222.257 35.3386 221.7C34.6832 221.144 34.3748 220.279 34.5294 219.434C34.6841 218.588 35.2783 217.889 36.0882 217.6L36.0884 217.6L73.8612 204.117C74.671 203.827 75.5736 203.992 76.229 204.549C76.8844 205.106 77.1928 205.97 77.0382 206.816C76.8835 207.661 76.2893 208.361 75.4794 208.649L75.4792 208.649Z" id="Shape" fill="#FFFFFF" stroke="none" />
      <path d="M71.9227 198.686L34.1499 212.169C33.3401 212.458 32.4375 212.293 31.7821 211.737C31.1268 211.18 30.8183 210.316 30.9729 209.47C31.1276 208.624 31.7218 207.925 32.5317 207.636L32.5319 207.636L70.3047 194.153C71.1145 193.864 72.0172 194.028 72.6725 194.585C73.3279 195.142 73.6363 196.006 73.4817 196.852C73.327 197.698 72.7328 198.397 71.9229 198.686L71.9227 198.686Z" id="Shape" fill="#FFFFFF" stroke="none" />
      <path d="M23.1203 154.28C23.1203 148.739 27.6126 144.246 33.1542 144.246C38.6957 144.246 43.188 148.739 43.188 154.28C43.188 159.822 38.6957 164.314 33.1542 164.314C27.6126 164.314 23.1203 159.822 23.1203 154.28Z" id="Circle" fill="#3F3D56" fill-rule="evenodd" stroke="none" />
      <path d="M401.53 608.873C382.907 608.779 365.739 603.859 350.5 592.546C348.35 591.856 347.165 589.555 347.851 587.404L360.181 548.865C360.872 546.716 363.172 545.531 365.323 546.216L416.353 562.543C418.503 563.234 419.688 565.534 419.002 567.685L406.672 606.224C405.981 608.373 403.681 609.559 401.53 608.873L401.53 608.873Z" id="Shape" fill="#F2F2F2" stroke="none" />
      <path d="M406.023 601.471C405.333 603.621 403.032 604.806 400.881 604.12C382.258 604.026 365.09 599.106 349.851 587.794C349.175 587.572 348.568 587.177 348.094 586.646L347.851 587.404C347.165 589.555 348.35 591.856 350.5 592.546C365.739 603.859 382.906 608.779 401.53 608.873C403.681 609.559 405.981 608.373 406.672 606.224L419.002 567.685C419.443 566.29 419.103 564.766 418.111 563.691L406.023 601.471Z" id="Shape" fill="#000000" fill-opacity="0.2" stroke="none" />
      <path d="M386.732 564.37L378.541 590.219C378.369 590.775 377.913 591.196 377.345 591.324C376.777 591.453 376.184 591.267 375.789 590.839C375.395 590.41 375.26 589.804 375.435 589.248L375.439 589.236L383.631 563.387C383.905 562.534 384.817 562.064 385.671 562.334C386.525 562.605 387 563.515 386.732 564.37L386.732 564.37Z" id="Shape" fill="#FFFFFF" stroke="none" />
      <path d="M371.838 581.837L370.036 587.523C369.863 588.078 369.407 588.498 368.839 588.626C368.272 588.753 367.68 588.568 367.287 588.141C366.893 587.713 366.757 587.108 366.93 586.553L366.934 586.54L368.736 580.854C368.91 580.299 369.366 579.879 369.933 579.752C370.5 579.624 371.092 579.809 371.486 580.237C371.879 580.664 372.015 581.269 371.842 581.824L371.838 581.837Z" id="Shape" fill="#FFFFFF" stroke="none" />
      <path d="M400.368 568.691L392.177 594.54C392.004 595.095 391.548 595.515 390.981 595.642C390.414 595.769 389.822 595.584 389.428 595.157C389.034 594.729 388.898 594.124 389.072 593.57L389.076 593.557L397.267 567.708C397.439 567.152 397.895 566.731 398.463 566.603C399.031 566.475 399.624 566.66 400.018 567.088C400.412 567.517 400.548 568.124 400.372 568.679L400.368 568.691Z" id="Shape" fill="#FFFFFF" stroke="none" />
      <path d="M393.55 566.531L385.359 592.379C385.187 592.935 384.731 593.357 384.163 593.485C383.595 593.613 383.002 593.428 382.608 592.999C382.214 592.571 382.078 591.964 382.254 591.409L382.257 591.396L390.449 565.548C390.622 564.993 391.078 564.573 391.645 564.446C392.212 564.318 392.804 564.503 393.198 564.931C393.592 565.358 393.728 565.963 393.554 566.518L393.55 566.531Z" id="Shape" fill="#FFFFFF" stroke="none" />
      <path d="M347.006 569.238C347.006 565.492 350.043 562.455 353.789 562.455C357.536 562.455 360.573 565.492 360.573 569.238C360.573 572.985 357.536 576.022 353.789 576.022C350.043 576.022 347.006 572.985 347.006 569.238Z" id="Circle" fill="#CCCCCC" fill-rule="evenodd" stroke="none" />
      <path d="M495.114 307.384C491.354 306.431 488.843 303.538 489.506 300.923C490.169 298.307 493.754 296.959 497.514 297.912C501.274 298.865 503.785 301.758 503.122 304.373C502.459 306.989 498.874 308.337 495.114 307.384Z" id="Ellipse" fill="#FFFFFF" fill-rule="evenodd" stroke="none" />
      <path d="M449.198 307.088C445.438 306.135 442.927 303.242 443.59 300.627C444.253 298.011 447.838 296.663 451.598 297.616C455.358 298.569 457.869 301.462 457.206 304.077C456.543 306.693 452.958 308.041 449.198 307.088Z" id="Ellipse" fill="#3F3D56" fill-rule="evenodd" stroke="none" />
      <path d="M503.73 345.478C499.97 344.525 497.46 341.632 498.122 339.017C498.785 336.401 502.371 335.053 506.131 336.006C509.891 336.959 512.401 339.852 511.738 342.467C511.075 345.083 507.49 346.431 503.73 345.478Z" id="Ellipse" fill="#FF6584" fill-rule="evenodd" stroke="none" />
      <path d="M518.88 360.9C517.185 360.711 516.032 358.582 516.304 356.146C516.577 353.71 518.171 351.888 519.866 352.078C521.561 352.267 522.714 354.396 522.442 356.832C522.17 359.268 520.575 361.09 518.88 360.9Z" id="Ellipse" fill="#E6E6E6" fill-rule="evenodd" stroke="none" />
      <path d="M522.656 389.673C520.961 389.484 519.808 387.355 520.08 384.919C520.352 382.483 521.947 380.661 523.642 380.851C525.336 381.04 526.49 383.168 526.218 385.605C525.945 388.041 524.351 389.862 522.656 389.673Z" id="Ellipse" fill="#3F3D56" fill-rule="evenodd" stroke="none" />
      <path d="M475.713 334.84C474.019 334.651 472.865 332.522 473.138 330.086C473.41 327.65 475.004 325.828 476.699 326.018C478.394 326.207 479.547 328.336 479.275 330.772C479.003 333.208 477.408 335.03 475.713 334.84Z" id="Ellipse" fill="#E6E6E6" fill-rule="evenodd" stroke="none" />
      <path d="M498.82 326.159C497.126 325.97 495.972 323.842 496.245 321.405C496.517 318.969 498.111 317.148 499.806 317.337C501.501 317.526 502.654 319.655 502.382 322.091C502.11 324.527 500.515 326.349 498.82 326.159Z" id="Ellipse" fill="#FF6584" fill-rule="evenodd" stroke="none" />
      <path d="M470.353 302.707C468.659 302.517 467.505 300.389 467.778 297.953C468.05 295.516 469.644 293.695 471.339 293.884C473.034 294.074 474.187 296.202 473.915 298.638C473.643 301.075 472.048 302.896 470.353 302.707Z" id="Ellipse" fill="#3F3D56" fill-rule="evenodd" stroke="none" />
      <path d="M66.3927 291.103C62.6328 290.15 60.1221 287.258 60.7849 284.642C61.4478 282.026 65.0332 280.678 68.7931 281.631C72.553 282.584 75.0637 285.477 74.4009 288.093C73.738 290.708 70.1526 292.056 66.3927 291.103Z" id="Ellipse" fill="#FFFFFF" fill-rule="evenodd" stroke="none" />
      <path d="M20.4766 290.807C16.7167 289.854 14.206 286.962 14.8689 284.346C15.5317 281.73 19.1171 280.383 22.877 281.335C26.637 282.288 29.1476 285.181 28.4848 287.797C27.8219 290.412 24.2366 291.76 20.4766 290.807Z" id="Ellipse" fill="#3F3D56" fill-rule="evenodd" stroke="none" />
      <path d="M75.0091 329.198C71.2492 328.245 68.7385 325.352 69.4014 322.736C70.0642 320.121 73.6496 318.773 77.4095 319.726C81.1694 320.679 83.6801 323.571 83.0173 326.187C82.3544 328.803 78.7691 330.15 75.0091 329.198Z" id="Ellipse" fill="#FF6584" fill-rule="evenodd" stroke="none" />
      <path d="M90.1593 344.62C88.4645 344.43 87.3113 342.302 87.5835 339.866C87.8557 337.429 89.4503 335.608 91.1451 335.797C92.8398 335.987 93.993 338.115 93.7208 340.551C93.4486 342.988 91.854 344.809 90.1593 344.62Z" id="Ellipse" fill="#E6E6E6" fill-rule="evenodd" stroke="none" />
      <path d="M93.9349 373.392C92.2402 373.203 91.0869 371.075 91.3592 368.638C91.6314 366.202 93.226 364.381 94.9207 364.57C96.6155 364.759 97.7687 366.888 97.4965 369.324C97.2243 371.76 95.6297 373.582 93.9349 373.392Z" id="Ellipse" fill="#3F3D56" fill-rule="evenodd" stroke="none" />
      <path d="M46.9922 318.56C45.2974 318.37 44.1442 316.242 44.4164 313.806C44.6887 311.369 46.2832 309.548 47.978 309.737C49.6728 309.927 50.826 312.055 50.5538 314.491C50.2815 316.928 48.687 318.749 46.9922 318.56Z" id="Ellipse" fill="#E6E6E6" fill-rule="evenodd" stroke="none" />
      <path d="M70.0994 309.879C68.4046 309.69 67.2514 307.561 67.5236 305.125C67.7958 302.689 69.3904 300.867 71.0852 301.057C72.7799 301.246 73.9332 303.374 73.6609 305.811C73.3887 308.247 71.7942 310.068 70.0994 309.879Z" id="Ellipse" fill="#FF6584" fill-rule="evenodd" stroke="none" />
      <path d="M41.6324 286.426C39.9377 286.237 38.7845 284.108 39.0567 281.672C39.3289 279.236 40.9235 277.414 42.6182 277.604C44.313 277.793 45.4662 279.922 45.194 282.358C44.9218 284.794 43.3272 286.616 41.6324 286.426Z" id="Ellipse" fill="#3F3D56" fill-rule="evenodd" stroke="none" />
      <path d="M367.393 418.225C356.201 403.339 349.733 386.693 349.521 367.716C348.77 365.586 349.885 363.251 352.013 362.495L390.158 348.998C392.288 348.248 394.623 349.362 395.379 351.49L413.25 401.999C414.001 404.129 412.886 406.464 410.758 407.219L372.613 420.716C370.483 421.467 368.148 420.353 367.393 418.225L367.393 418.225Z" id="Shape" fill="#F2F2F2" stroke="none" />
      <path d="M376.005 417.325C373.875 418.075 371.54 416.961 370.784 414.833C359.593 399.947 353.125 383.301 352.913 364.324C352.68 363.651 352.628 362.929 352.763 362.23L352.013 362.495C349.885 363.251 348.77 365.586 349.521 367.716C349.733 386.693 356.201 403.339 367.393 418.225C368.148 420.352 370.483 421.467 372.613 420.716L410.759 407.219C412.136 406.727 413.144 405.534 413.4 404.093L376.005 417.325Z" id="Shape" fill="#000000" fill-opacity="0.2" stroke="none" />
      <path d="M393.876 379.519L368.338 388.635C367.493 388.936 366.563 388.494 366.261 387.649C365.959 386.803 366.399 385.873 367.245 385.57L392.782 376.455C393.628 376.154 394.557 376.595 394.859 377.441C395.161 378.286 394.721 379.217 393.875 379.52L393.876 379.519Z" id="Shape" fill="#FFFFFF" stroke="none" />
      <path d="M370.957 378.227L365.339 380.232C364.792 380.428 364.182 380.317 363.738 379.942C363.295 379.566 363.086 378.982 363.189 378.41C363.293 377.838 363.694 377.365 364.242 377.169L364.245 377.168L369.863 375.162C370.709 374.862 371.639 375.303 371.941 376.148C372.242 376.994 371.802 377.924 370.957 378.227L370.957 378.227Z" id="Shape" fill="#FFFFFF" stroke="none" />
      <path d="M398.684 392.992L373.147 402.107C372.6 402.303 371.99 402.192 371.547 401.816C371.103 401.441 370.894 400.857 370.998 400.285C371.102 399.713 371.503 399.24 372.05 399.044L372.053 399.043L397.59 389.927C398.436 389.626 399.366 390.068 399.668 390.913C399.97 391.759 399.529 392.689 398.684 392.992L398.684 392.992Z" id="Shape" fill="#FFFFFF" stroke="none" />
      <path d="M396.28 386.256L370.743 395.371C370.196 395.567 369.586 395.456 369.142 395.081C368.699 394.705 368.49 394.121 368.593 393.549C368.697 392.977 369.098 392.504 369.645 392.308L369.649 392.307L395.186 383.191C395.733 382.995 396.344 383.106 396.787 383.482C397.23 383.858 397.44 384.441 397.336 385.013C397.232 385.585 396.831 386.058 396.284 386.254L396.28 386.256Z" id="Shape" fill="#FFFFFF" stroke="none" />
      <path d="M363.286 356.234C363.286 352.488 366.323 349.451 370.07 349.451C373.816 349.451 376.853 352.488 376.853 356.234C376.853 359.981 373.816 363.018 370.07 363.018C366.323 363.018 363.286 359.981 363.286 356.234Z" id="Circle" fill="#CCCCCC" fill-rule="evenodd" stroke="none" />
    </g>
  </g>
</svg>