<?xml version="1.0" encoding="utf-8"?>
<svg width="615.285px" height="186.21347px" viewBox="0 0 615.285 186.21347" version="1.1" xmlns:xlink="http://www.w3.org/1999/xlink" xmlns="http://www.w3.org/2000/svg">
  <defs>
    <path d="M0 0L615.285 0L615.285 186.213L0 186.213L0 0Z" id="path_1" />
    <clipPath id="mask_1">
      <use xlink:href="#path_1" />
    </clipPath>
  </defs>
  <g id="Writa-SVG">
    <path d="M0 0L615.285 0L615.285 186.213L0 186.213L0 0Z" id="Background" fill="none" fill-rule="evenodd" stroke="none" />
    <g clip-path="url(#mask_1)">
      <g id="Layer_x0020_1" transform="translate(-0.0017089844 -0.00021362305)">
        <path d="M173.751 46.5353C191.842 77.8967 190.641 118.337 167.494 149.093C136.573 190.175 78.2037 198.413 37.1195 167.493C-3.96208 136.572 -12.2006 78.2022 18.7201 37.118C41.8673 6.36493 80.3965 -5.98062 115.541 2.72291L103.441 30.4125L150.493 65.8242L173.751 46.5353L173.751 46.5353ZM42.1864 148.287L46.5368 151.562L90.3573 93.3408C87.8887 90.2639 87.7995 85.6593 90.4006 82.2038C93.4505 78.1535 99.0392 77.2153 102.887 80.1111C106.734 83.0069 107.38 88.6389 104.331 92.6892C101.73 96.1446 97.2818 97.3343 93.6424 95.8121L49.8219 154.033L54.1724 157.307C73.902 135.888 108.997 121.009 133.705 121.669L144.441 73.8869L97.3683 38.4563L54.4238 61.9956C61.8944 85.5565 57.3115 123.399 42.1864 148.285L42.1864 148.287Z" id="Shape" fill="#160647" fill-rule="evenodd" stroke="none" />
        <path d="M281.573 70.5829L299.891 70.5829C297.204 82.9852 294.513 94.6467 291.858 105.538C289.203 116.429 287.859 125.032 287.859 131.316C287.859 139.919 290.379 144.221 295.454 144.221C302.143 144.221 308.833 137.399 315.519 123.753C322.241 110.107 325.569 98.7808 325.569 89.7745C325.569 88.1954 324.158 87.3194 321.335 87.1193C315.522 86.9165 312.596 83.9613 312.596 78.2455C312.596 75.8931 313.402 73.7761 314.984 71.8591C316.598 69.9421 318.647 69.0012 321.167 69.0012C327.451 69.0012 330.612 73.6382 330.612 82.8825C330.612 97.4019 326.445 112.427 318.142 127.987C309.841 143.548 301.102 151.313 291.893 151.313C286.515 151.313 281.743 148.961 277.577 144.288C273.41 139.584 271.325 132.659 271.325 123.45C271.325 119.049 271.931 113.468 273.107 106.714L272.704 106.311C266.15 122.477 259.864 134.006 253.916 140.93C247.932 147.855 241.549 151.316 234.792 151.316C224.539 151.316 219.431 146.543 219.431 136.964C219.431 133.468 220.372 127.958 222.289 120.395L229.987 89.7772C231.298 84.1992 231.937 80.568 231.937 78.8538C231.937 76.7367 231.028 75.6958 229.181 75.6958C223.871 75.6958 218.426 82.5175 212.848 96.1987L208.411 96.1987C214.83 78.0832 224.174 69.0093 236.373 69.0093C245.112 69.0093 249.481 73.5138 249.481 82.4877C249.481 85.8485 249.011 88.9417 248.103 91.7645L239.431 126.719C239.364 127.122 238.926 128.836 238.155 131.929C237.35 135.023 236.979 137.307 236.979 138.819C236.979 142.685 238.391 144.632 241.213 144.632C245.783 144.632 251.866 138.213 259.429 125.34C266.956 112.467 274.351 94.2168 281.578 70.5883L281.573 70.5829ZM370.303 70.18L364.59 94.6142L364.993 94.9847C374.002 77.6749 382.068 69.0038 389.227 69.0038C391.915 69.0038 394.202 69.8772 396.049 71.659C397.931 73.4408 398.872 75.6255 398.872 78.2454C398.872 80.9006 397.963 83.0528 396.149 84.767C394.335 86.4812 392.047 87.3221 389.225 87.3221C386.602 87.3221 384.452 86.5164 382.771 84.9022C381.092 83.288 380.016 82.4823 379.578 82.4823C378.134 82.4823 375.814 84.767 372.653 89.304C369.527 93.8085 367.075 98.2428 365.326 102.58C363.579 106.917 361.662 113.671 359.578 122.88L353.359 149.837L334.773 149.837L350.906 76.4988L335.749 76.4988L337.025 71.4562L349.327 71.4562C357.731 71.4562 364.72 71.0533 370.301 70.18L370.303 70.18ZM424.079 28.436C424.079 25.4781 425.188 22.923 427.34 20.8059C429.525 18.6537 432.045 17.6127 434.935 17.6127C437.961 17.6127 440.513 18.6537 442.665 20.7383C444.782 22.8554 445.859 25.4105 445.859 28.436C445.859 31.4616 444.782 34.0491 442.598 36.1662C440.446 38.2833 437.893 39.3594 434.935 39.3594C432.045 39.3594 429.525 38.2833 427.34 36.1662C425.188 34.0491 424.079 31.4616 424.079 28.436L424.079 28.436ZM435.808 69.6095L421.054 130.342C419.978 135.35 419.475 138.543 419.475 139.989C419.475 142.444 420.686 143.653 423.106 143.653C426.132 143.653 429.628 141.468 433.591 137.099C437.558 132.73 441.457 126.243 445.256 117.64L449.693 117.64C441.089 140.092 429.357 151.318 414.435 151.318C405.796 151.318 401.462 146.781 401.462 137.74C401.462 134.985 401.833 132.059 402.638 128.969C403.412 125.876 404.05 123.356 404.52 121.406L415.444 76.5042L396.825 76.5042L397.901 71.4616L409.328 71.4616C418.704 71.4616 427.543 70.856 435.811 69.6122L435.808 69.6095ZM487.432 49.6122L482.792 71.4589L495.498 71.4589L494.421 76.5015L481.516 76.5015L468.408 131.924C467.367 136.058 466.829 139.016 466.829 140.798C466.829 143.353 467.938 144.629 470.09 144.629C475.333 144.629 481.113 136.764 487.432 121.001L491.466 121.001C488.308 130.915 484.239 138.443 479.232 143.585C474.257 148.761 468.914 151.316 463.201 151.316C453.956 151.316 449.319 146.611 449.319 137.132C449.319 134.444 450.093 129.704 451.672 122.88L462.595 76.4988L449.722 76.4988L450.698 71.4562L463.974 71.4562L468.411 52.4674C475.1 52.3998 481.451 51.4589 487.435 49.6095L487.432 49.6122ZM575.087 70.7856L561.776 126.914C560.532 131.956 559.927 135.92 559.927 138.811C559.927 141.498 560.867 142.845 562.784 142.845C564.363 142.845 566.583 140.963 569.474 137.199C572.364 133.435 575.322 127.822 578.312 120.395L582.379 120.395C578.815 131.051 574.649 138.846 569.876 143.856C565.069 148.831 560.432 151.318 555.963 151.318C547.83 151.318 543.425 145.267 542.787 133.103L542.384 133.103C536.536 145.27 528.403 151.318 517.982 151.318C511.528 151.318 506.018 148.293 501.378 142.277C496.739 136.228 494.422 128.866 494.422 120.195C494.422 106.684 499.161 94.7846 508.673 84.4669C518.15 74.1492 527.594 69.0065 536.974 69.0065C545.913 69.0065 551.291 73.8788 553.108 83.6611L553.51 83.6611L556.368 70.7883L575.089 70.7883L575.087 70.7856ZM550.282 91.3562C550.282 86.246 549.173 81.9794 546.956 78.551C544.772 75.1577 541.714 73.4435 537.747 73.4435C533.378 73.4435 529.782 75.4605 527.026 79.5271C524.271 83.6287 521.111 93.1731 517.515 108.231C513.951 123.321 512.169 132.732 512.169 136.564C512.169 142.983 514.657 146.211 519.629 146.211C523.26 146.211 526.956 144.8 530.72 141.977C534.484 139.154 538.685 132.5 543.322 121.979C547.959 111.494 550.279 101.276 550.279 91.3616L550.282 91.3562ZM592.026 139.619C592.026 136.393 593.17 133.671 595.487 131.418C597.771 129.201 600.529 128.093 603.755 128.093C606.881 128.093 609.603 129.201 611.856 131.418C614.14 133.671 615.284 136.393 615.284 139.619C615.284 142.812 614.14 145.567 611.856 147.887C609.603 150.172 606.881 151.316 603.755 151.316C600.529 151.316 597.772 150.172 595.487 147.887C593.167 145.567 592.026 142.812 592.026 139.619L592.026 139.619Z" id="Shape" fill="#160647" fill-rule="evenodd" stroke="none" />
      </g>
    </g>
  </g>
</svg>